<svg width="42" height="42" viewBox="0 0 42 42" fill="none" xmlns="http://www.w3.org/2000/svg">
<path d="M26.3021 28.1584C23.4471 30.5359 19.7854 31.7212 16.0787 31.4677C12.372 31.2143 8.90565 29.5416 6.40075 26.7977C3.89584 24.0537 2.54518 20.4497 2.62972 16.7353C2.71425 13.021 4.22748 9.48214 6.85463 6.85499C9.48177 4.22784 13.0206 2.71462 16.735 2.63008C20.4494 2.54555 24.0534 3.89621 26.7973 6.40111C29.5413 8.90602 31.2139 12.3723 31.4674 16.079C31.7208 19.7857 30.5355 23.4474 28.158 26.3025L36.3664 34.5083C36.6128 34.7547 36.7513 35.089 36.7513 35.4375C36.7513 35.786 36.6128 36.1203 36.3664 36.3668C36.1199 36.6132 35.7857 36.7517 35.4371 36.7517C35.0886 36.7517 34.7543 36.6132 34.5079 36.3668L26.3021 28.1584ZM28.8746 17.0625C28.8746 15.5113 28.5691 13.9752 27.9755 12.5421C27.3818 11.1089 26.5117 9.8067 25.4148 8.7098C24.3179 7.61291 23.0157 6.74281 21.5826 6.14918C20.1494 5.55554 18.6134 5.25 17.0621 5.25C15.5109 5.25 13.9748 5.55554 12.5417 6.14918C11.1085 6.74281 9.80633 7.61291 8.70944 8.7098C7.61255 9.8067 6.74244 11.1089 6.14881 12.5421C5.55518 13.9752 5.24964 15.5113 5.24964 17.0625C5.24964 20.1954 6.49416 23.1999 8.70944 25.4152C10.9247 27.6305 13.9293 28.875 17.0621 28.875C20.195 28.875 23.1996 27.6305 25.4148 25.4152C27.6301 23.1999 28.8746 20.1954 28.8746 17.0625Z" fill="white"/>
</svg>
